PathFileType	4	(X/Y/Z)	/Users/itak/Documents/Research/Walk-IL/dataset/trc/00497_00183.trc
DataRate	CameraRate	NumFrames	NumMarkers	Units	OrigDataRate	OrigDataStartFrame	OrigNumFrames
100.000000	100.000000	4	53	mm	100.000000	542	723
Frame#	Time	RPSI			LPSI			L3			STRN			T10			C7			CLAV			RBAK			LBAK			LSHO			LUPA			LAEL			LAOL			LWTS			LWPS			LFRA			LIFD			LHPS			LHTS			RSHO			RUPA			RAEL			RAOL			RWTS			RWPS			RFRA			RIFD			RHTS			RHPS			RBHD			LFHD			RFHD			LBHD			LHIP			RHIP			RASI			LASI			LKNE			LTHI			LANK			LTIP			LTOE			LMT1			LMT5			LHEE			RKNE			RTHI			RANK			RTIP			RTOE			RMT1			RMT5			RHEE			
		X1	Y1	Z1	X2	Y2	Z2	X3	Y3	Z3	X4	Y4	Z4	X5	Y5	Z5	X6	Y6	Z6	X7	Y7	Z7	X8	Y8	Z8	X9	Y9	Z9	X10	Y10	Z10	X11	Y11	Z11	X12	Y12	Z12	X13	Y13	Z13	X14	Y14	Z14	X15	Y15	Z15	X16	Y16	Z16	X17	Y17	Z17	X18	Y18	Z18	X19	Y19	Z19	X20	Y20	Z20	X21	Y21	Z21	X22	Y22	Z22	X23	Y23	Z23	X24	Y24	Z24	X25	Y25	Z25	X26	Y26	Z26	X27	Y27	Z27	X28	Y28	Z28	X29	Y29	Z29	X30	Y30	Z30	X31	Y31	Z31	X32	Y32	Z32	X33	Y33	Z33	X34	Y34	Z34	X35	Y35	Z35	X36	Y36	Z36	X37	Y37	Z37	X38	Y38	Z38	X39	Y39	Z39	X40	Y40	Z40	X41	Y41	Z41	X42	Y42	Z42	X43	Y43	Z43	X44	Y44	Z44	X45	Y45	Z45	X46	Y46	Z46	X47	Y47	Z47	X48	Y48	Z48	X49	Y49	Z49	X50	Y50	Z50	X51	Y51	Z51	X52	Y52	Z52	X53	Y53	Z53	

543	5.42	284.4127197265625	943.2284545898438	237.6900024414062	341.1322937011719	941.3458862304688	126.8360977172852	307.6311950683594	1015.708190917969	175.8718109130859	506.9275817871094	1177.05517578125	263.0019836425781	292.6939086914062	1120.52099609375	174.6021575927734	333.0429077148438	1350.139526367188	192.4047546386719	474.2213439941406	1271.463012695312	248.3869171142578	253.1659393310547	1230.101928710938	254.3814697265625	340.6517944335938	1296.213745117188	101.6120147705078	457.8258972167969	1337.920166015625	68.42911529541016	469.6288146972656	1211.37939453125	8.652477264404297	483.6744689941406	1001.843444824219	-12.45365715026855	392.9634399414062	993.0663452148438	21.82810020446777	564.1567993164062	816.1904296875	51.55462646484375	498.4298706054688	778.2411499023438	-2.568303108215332	504.0465393066406	927.0726318359375	-8.731130599975586	563.9205932617188	659.2374877929688	73.72966766357422	519.2093505859375	725.98779296875	12.82140159606934	576.5404052734375	736.666015625	41.00506591796875	328.8948059082031	1344.52734375	351.2509460449219	292.654296875	1276.672241210938	398.7202758789062	289.514892578125	1008.145202636719	444.6512451171875	248.9569244384766	991.6236572265625	394.9324340820312	402.8038330078125	808.2567749023438	433.9796447753906	320.1109619140625	784.3233032226562	461.82470703125	295.6391906738281	953.4813232421875	452.2033386230469	409.2366638183594	649.6416015625	429.2861633300781	415.2699279785156	714.482177734375	457.6382141113281	344.5827941894531	710.4754028320312	464.6244812011719	346.1138610839844	1503.650512695312	284.2467651367188	519.477783203125	1560.581909179688	202.8628692626953	468.3983154296875	1557.7041015625	319.1779174804688	396.9480285644531	1503.259643554688	133.3909301757812	504.4804992675781	875.7005615234375	65.1552734375	319.0747680664062	843.8473510742188	395.0582275390625	438.9325866699219	889.7549438476562	387.2155151367188	545.2642822265625	911.206298828125	170.1880035400391	614.6080932617188	478.4716796875	156.4592590332031	584.32177734375	627.563720703125	115.3317413330078	642.6478881835938	43.65864944458008	156.2862701416016	635.4056396484375	326.2385559082031	152.4435424804688	781.9403686523438	70.10267639160156	296.9300842285156	704.9430541992188	54.11008453369141	295.1559143066406	740.611328125	54.01327514648438	197.0582427978516	574.6653442382812	35.00323486328125	192.2175598144531	312.9768981933594	459.3410949707031	330.26318359375	338.6050109863281	713.0953369140625	401.963134765625	179.5999145507812	54.69725799560547	220.2530059814453	297.9295349121094	316.9011840820312	292.0090637207031	375.7767944335938	37.75129318237305	269.6982727050781	333.0361938476562	40.15366744995117	205.1508941650391	273.5536499023438	42.50975799560547	281.2191467285156	149.6795806884766	51.59199523925781	156.2088623046875	
544	5.43	289.3994750976562	943.3304443359375	237.7346496582031	346.081787109375	941.81494140625	126.9900054931641	312.4583129882812	1015.779541015625	175.8219146728516	511.6500549316406	1177.35986328125	263.2365112304688	297.5766906738281	1120.547973632812	174.3997344970703	337.7523193359375	1350.223022460938	191.9856567382812	478.9385375976562	1271.734741210938	248.3910675048828	257.7908325195312	1230.242431640625	253.9439392089844	345.6328125	1296.177734375	101.2384643554688	462.8626098632812	1337.867919921875	68.28977966308594	475.0138549804688	1211.298828125	8.709105491638184	489.4473266601562	1001.78369140625	-12.18290996551514	398.5755615234375	992.8975219726562	21.75167083740234	569.6461181640625	816.1813354492188	52.40206146240234	504.62744140625	778.4091796875	-2.677222967147827	509.9187927246094	927.0684814453125	-8.381511688232422	569.3621826171875	659.2241821289062	74.39011383056641	525.1397705078125	725.6674194335938	13.17191886901855	582.1929321289062	736.6408081054688	41.81366348266602	333.2413330078125	1344.794311523438	350.8363952636719	296.9010620117188	1276.940063476562	398.248046875	293.1636047363281	1008.459045410156	444.1031799316406	253.1089935302734	991.9631958007812	394.1311340332031	405.7876892089844	808.1044921875	434.4330139160156	322.7557678222656	784.5961303710938	461.6822509765625	299.1594543457031	953.8096313476562	451.7989807128906	411.4787292480469	649.4657592773438	430.0323486328125	417.6143798828125	714.310791015625	458.3437194824219	346.8410034179688	710.6454467773438	464.7760009765625	350.1618041992188	1503.548583984375	283.6694946289062	523.6643676757812	1561.12841796875	202.9503631591797	472.1520690917969	1558	319.0724182128906	401.6051940917969	1503.455078125	132.9841918945312	509.629638671875	876.3397216796875	65.41883850097656	323.8422546386719	843.879150390625	394.9705505371094	443.7416381835938	889.7716674804688	387.4079284667969	550.359375	911.574951171875	170.5053558349609	618.0189208984375	478.5488891601562	156.5251770019531	588.34033203125	627.7787475585938	115.3677444458008	642.9496459960938	43.54936599731445	156.4623718261719	638.0703735351562	325.9439392089844	152.6407165527344	784.1858520507812	67.97636413574219	295.8749084472656	706.712158203125	52.94774627685547	294.6869812011719	741.3676147460938	52.79478454589844	196.3700103759766	575.1490478515625	35.49538803100586	192.89306640625	316.2427368164062	459.7798461914062	329.9355163574219	342.9455871582031	713.226806640625	402.0170288085938	180.1425933837891	55.87138366699219	219.8066558837891	300.28466796875	317.3949584960938	291.7440185546875	375.8288269042969	37.77775955200195	269.8471069335938	333.3588562011719	40.38347244262695	205.131591796875	273.7942810058594	43.04132461547852	281.1207885742188	150.3633117675781	53.22148132324219	155.6748809814453	
545	5.44	294.3811340332031	943.531982421875	237.8676300048828	350.9419555664062	942.4002685546875	127.2373657226562	317.239013671875	1015.9560546875	175.8340606689453	516.401611328125	1177.796264648438	263.4046020507812	302.397705078125	1120.687744140625	174.2383270263672	342.4862976074219	1350.422973632812	191.5104675292969	483.6793212890625	1272.130004882812	248.316162109375	262.4492492675781	1230.530029296875	253.5239868164062	350.6016235351562	1296.239624023438	100.8267974853516	467.8856201171875	1337.91259765625	68.06950378417969	480.3721923828125	1211.301513671875	8.70915412902832	495.2607116699219	1001.810424804688	-11.93230152130127	404.2119750976562	992.8045654296875	21.62405967712402	575.13916015625	816.2584838867188	53.28258895874023	510.8561096191406	778.6436767578125	-2.795365333557129	515.8351440429688	927.1680908203125	-8.043927192687988	574.8209228515625	659.2922973632812	75.01705932617188	531.2056274414062	725.3872680664062	13.40122509002686	587.8840942382812	736.7142944335938	42.63279724121094	337.661865234375	1345.226684570312	350.3689270019531	301.2427978515625	1277.399658203125	397.7689514160156	297.0283508300781	1008.956665039062	443.5430603027344	257.4081726074219	992.50244140625	393.3302917480469	408.8740539550781	808.1257934570312	434.7928161621094	325.5209045410156	785.0718383789062	461.5485229492188	302.827880859375	954.345703125	451.3769226074219	413.7460327148438	649.4537353515625	430.73388671875	420.0553588867188	714.3107299804688	458.9639587402344	349.1998291015625	711.0159301757812	464.9372253417969	354.2473754882812	1503.563720703125	283.0128479003906	527.8881225585938	1561.768798828125	202.9521789550781	475.9327087402344	1558.398193359375	318.8796997070312	406.3091735839844	1503.751831054688	132.501708984375	514.6868286132812	877.1220703125	65.66500854492188	328.7146911621094	844.0086059570312	394.9207458496094	448.6326599121094	889.8966064453125	387.5784912109375	555.4716796875	912.1146850585938	170.7749938964844	621.5098876953125	478.7462158203125	156.5110778808594	592.3794555664062	628.1279296875	115.2801895141602	643.2047729492188	43.47326278686523	156.5366363525391	640.7319946289062	325.7882080078125	152.7466278076172	786.341064453125	66.08845520019531	294.653076171875	708.4215698242188	51.99310684204102	294.0924682617188	742.0388793945312	51.71860122680664	195.5321044921875	575.5919799804688	35.93582916259766	193.4620971679688	319.78564453125	460.3110961914062	329.5995788574219	347.4360961914062	713.4301147460938	402.0612487792969	180.7555389404297	57.23039627075195	219.3191986083984	302.8918762207031	317.9727478027344	291.5080261230469	375.8949584960938	37.80744934082031	269.9997253417969	333.7463989257812	40.67949676513672	205.1122894287109	274.046630859375	43.65173721313477	281.0366821289062	151.1632690429688	55.06718063354492	155.0723114013672	
546	5.45	299.3527221679688	943.8352661132812	238.082763671875	355.7340698242188	943.0772705078125	127.5718231201172	321.9804077148438	1016.232482910156	175.9037322998047	521.1845092773438	1178.358520507812	263.5009765625	307.1587219238281	1120.931640625	174.1121215820312	347.237548828125	1350.731201171875	190.9746246337891	488.436767578125	1272.643310546875	248.1579437255859	267.1450500488281	1230.953369140625	253.1223907470703	355.5549926757812	1296.391967773438	100.3731231689453	472.8880310058594	1338.050415039062	67.76763153076172	485.6940002441406	1211.384033203125	8.645851135253906	501.103515625	1001.917785644531	-11.71057510375977	409.8687133789062	992.7863159179688	21.43439102172852	580.6258544921875	816.4210205078125	54.19612503051758	517.1085815429688	778.93896484375	-2.916615962982178	521.7874755859375	927.3651733398438	-7.7164626121521	580.2910766601562	659.4391479492188	75.60663604736328	537.4013671875	725.203857421875	13.51232433319092	593.6098022460938	736.8905639648438	43.47517776489258	342.1599731445312	1345.819946289062	349.84326171875	305.6817626953125	1278.056030273438	397.2856750488281	301.1157531738281	1009.640930175781	442.9932250976562	261.8297729492188	993.248291015625	392.5552062988281	412.0689392089844	808.3252563476562	435.0706176757812	328.4136352539062	785.7491455078125	461.427490234375	306.6423950195312	955.0908203125	450.9483337402344	416.0490417480469	649.6111450195312	431.3673706054688	422.6002807617188	714.4825439453125	459.4867248535156	351.6702880859375	711.585693359375	465.0970153808594	358.3688049316406	1503.69189453125	282.2796936035156	532.142333984375	1562.491577148438	202.8656463623047	479.7388000488281	1558.891723632812	318.5978393554688	411.0488891601562	1504.142333984375	131.9455871582031	519.6793212890625	878.0053100585938	65.90773010253906	333.6785278320312	844.2486572265625	394.904541015625	453.5978393554688	890.134765625	387.7272033691406	560.6057739257812	912.80810546875	171.0042266845703	625.0490112304688	479.0104675292969	156.4305725097656	596.4617919921875	628.576904296875	115.1209030151367	643.411376953125	43.41372680664062	156.5098571777344	643.3505249023438	325.7284545898438	152.7764129638672	788.38037109375	64.41848754882812	293.2967529296875	710.0475463867188	51.21878814697266	293.3882141113281	742.6168212890625	50.76302719116211	194.5666351318359	575.992919921875	36.30546569824219	193.9140472412109	323.6430969238281	460.921875	329.2826538085938	352.0948791503906	713.7001953125	402.0885620117188	181.4407043457031	58.78511047363281	218.8143005371094	305.7745971679688	318.6263122558594	291.3274536132812	375.9736328125	37.84352874755859	270.1519470214844	334.1996154785156	41.04171752929688	205.1029968261719	274.3042602539062	44.33023452758789	280.9739074707031	152.062744140625	57.14786148071289	154.4342651367188	
